<?xml version="1.0" encoding="UTF-8"?>
<svg id="Layer_1" xmlns="http://www.w3.org/2000/svg" version="1.1" viewBox="0 0 124.29 101.86">
  <defs>
    <style>
      .st0 { fill: currentColor; }
    </style>
  </defs>
  <path class="st0" d="M124.29,22.79l-16.83,4.47C96.16,4.52,68.79-5.69,45.2,4.52l-1.96-4.52C17.11,11.31,4.69,41.11,14.64,67.46L0,76.58l16.67-4.43c12.4,25.3,42.63,36.64,68.76,25.33l-1.96-4.52c23.59-10.21,34.89-37.14,26.04-60.96l14.78-9.2ZM81.88,89.29c-22.36,9.67-48.42-.64-58.09-23-9.68-22.36.64-48.42,23-58.09,22.36-9.68,48.42.64,58.09,23,9.68,22.36-.64,48.42-23,58.09Z"/>
</svg>
